# xmcd CD database file
#
# Track frame offsets:
#	150
#	14107
#	31968
#	48568
#	66465
#	87225
#	102195
#	120573
#	135309
#	148053
#	163819
#
# Disc length: 2490 seconds
#
# Revision: 0
# Processed by: cddbd v1.5.2PL0 Copyright (c) Steve Scherf et al.
# Submitted via: CDex 1.51
#
DISCID=9c09b80b
DTITLE=Swing 19 - Swing 19
DYEAR=2009
DGENRE=Jazz
TTITLE0=Do Your Duty
TTITLE1=Laura
TTITLE2=Blue Moon
TTITLE3=Sweet Sue
TTITLE4=The Man I Love
TTITLE5=Blue Drag
TTITLE6=Caravan
TTITLE7=Bei Mir Bist Du Schoen
TTITLE8=Some Of These Days
TTITLE9=But Not For Me
TTITLE10=All Of Me
EXTD=YEAR: 2009
EXTT0=
EXTT1=
EXTT2=
EXTT3=
EXTT4=
EXTT5=
EXTT6=
EXTT7=
EXTT8=
EXTT9=
EXTT10=
PLAYORDER=
